<?xml version="1.0" encoding="UTF-8" standalone="no"?>
<!DOCTYPE svg PUBLIC "-//W3C//DTD SVG 1.1//EN" "http://www.w3.org/Graphics/SVG/1.1/DTD/svg11.dtd">
<svg width="100%" height="100%" viewBox="0 0 32 32" version="1.1" xmlns="http://www.w3.org/2000/svg" xmlns:xlink="http://www.w3.org/1999/xlink" xml:space="preserve" xmlns:serif="http://www.serif.com/" style="fill-rule:evenodd;clip-rule:evenodd;stroke-linejoin:round;stroke-miterlimit:2;">
    <g transform="matrix(0.493174,0,0,0.493174,0.944171,1.28571)">
        <path id="Loop" d="M49.119,10.472L44.584,2.951C44.538,1.413 45.323,0.374 47.416,0.119L59.416,12.119C59.792,12.494 60.004,13.004 60.004,13.535C60.004,14.066 59.792,14.576 59.416,14.951L47.416,26.951C45.26,27.068 44.458,25.999 44.584,24.119L49.053,16.199L17.056,16.199C11.571,16.199 7.056,20.049 7.056,25.535L7.056,31.535C5.789,32.723 2.539,32.914 1.13,31.535L1.13,25.535C1.13,17.855 7.516,10.472 15.196,10.472L49.119,10.472ZM60,28L60,34C60,41.68 53.68,49.13 46,49.13L10.15,49.13L16.413,56.584C16.159,58.426 15.26,59.428 13.581,59.416L0.584,47.416C-0.192,46.64 -0.192,45.364 0.584,44.588L13.581,32.588C15.426,32.698 16.421,33.594 16.413,35.416L10.15,42.937L43.94,42.937C49.426,42.937 53.94,39.486 53.94,34L53.94,28C55.274,27.073 58.667,27.073 60,28Z" style="fill:rgb(230,230,230);"/>
    </g>
</svg>
