<?xml version="1.0" encoding="UTF-8" standalone="no"?>
<!DOCTYPE svg PUBLIC "-//W3C//DTD SVG 1.1//EN" "http://www.w3.org/Graphics/SVG/1.1/DTD/svg11.dtd">
<svg width="100%" height="100%" viewBox="0 0 32 32" version="1.1" xmlns="http://www.w3.org/2000/svg" xmlns:xlink="http://www.w3.org/1999/xlink" xml:space="preserve" xmlns:serif="http://www.serif.com/" style="fill-rule:evenodd;clip-rule:evenodd;stroke-linejoin:round;stroke-miterlimit:2;">
    <g transform="matrix(0.345781,0,0,0.345781,-6.39105,-6.04909)">
        <g id="Stop">
            <g transform="matrix(0.723001,0,0,0.723001,18.4829,63.3536)">
                <path d="M120.65,28.815C122.088,31.733 122.255,34.397 120.65,36.706L7.6,36.706C5.877,33.869 5.877,31.239 7.6,28.815L120.65,28.815Z" style="fill:rgb(230,230,230);stroke:white;stroke-width:1px;"/>
            </g>
            <g transform="matrix(0.723001,0,0,0.723001,18.4829,17.494)">
                <path d="M113.995,64.015L113.995,7.43C116.625,5.601 123.077,5.601 125.708,7.43L125.708,64C123.059,65.427 116.644,65.345 113.995,64.015Z" style="fill:rgb(230,230,230);"/>
            </g>
            <g transform="matrix(0.723001,0,0,0.723001,18.4829,17.494)">
                <path d="M108.459,43.245L89.191,62.512C84.938,62.742 83.357,60.633 83.605,56.925L92.158,41.958L7.474,41.958C5.751,39.12 5.751,32.558 7.474,30.135L92.158,30.135L83.605,15.167C83.514,12.133 85.063,10.083 89.191,9.58L108.459,28.848C110.795,33.647 110.746,38.446 108.459,43.245Z" style="fill:rgb(230,230,230);"/>
            </g>
        </g>
    </g>
</svg>
