<?xml version="1.0" encoding="UTF-8" standalone="no"?>
<!DOCTYPE svg PUBLIC "-//W3C//DTD SVG 1.1//EN" "http://www.w3.org/Graphics/SVG/1.1/DTD/svg11.dtd">
<svg width="100%" height="100%" viewBox="0 0 32 32" version="1.1" xmlns="http://www.w3.org/2000/svg" xmlns:xlink="http://www.w3.org/1999/xlink" xml:space="preserve" xmlns:serif="http://www.serif.com/" style="fill-rule:evenodd;clip-rule:evenodd;stroke-linejoin:round;stroke-miterlimit:2;">
    <g transform="matrix(0.345781,0,0,0.345781,-6.39105,-6.04909)">
        <g id="Start">
            <g transform="matrix(0.723001,0,0,0.723001,18.4829,17.494)">
                <path d="M23.241,86.788L40.618,69.411C44.747,69.913 46.296,71.963 46.205,74.997L45.345,90.358L86.173,90.358C97.792,90.212 105.273,86.596 106.025,72.094L106.012,65.192C108.565,62.804 114.879,62.895 117.63,65.192L117.63,72.128C115.775,92.836 104.104,101.948 88.69,101.919L45.345,101.919L46.205,116.755C46.453,120.464 44.872,122.572 40.618,122.342L23.241,104.283C19.513,98.776 19.971,92.904 23.241,86.788Z" style="fill:rgb(230,230,230);"/>
            </g>
            <g transform="matrix(0.723001,0,0,0.723001,18.4829,17.494)">
                <path d="M18.219,67.819L18.219,120.772C15.57,122.103 8.831,122.185 6.182,120.758L6.182,67.819C8.812,65.99 15.589,65.99 18.219,67.819Z" style="fill:rgb(230,230,230);"/>
            </g>
            <g transform="matrix(0.723001,0,0,0.723001,18.4829,17.494)">
                <path d="M108.459,43.245L89.191,62.512C84.938,62.742 83.357,60.633 83.605,56.925L92.158,41.958L7.474,41.958C5.751,39.12 5.751,32.558 7.474,30.135L92.158,30.135L83.605,15.167C83.514,12.133 85.063,10.083 89.191,9.58L108.459,28.848C110.795,33.647 110.746,38.446 108.459,43.245Z" style="fill:rgb(230,230,230);"/>
            </g>
        </g>
    </g>
</svg>
